<svg id="Capa_1" data-name="Capa 1" xmlns="http://www.w3.org/2000/svg" viewBox="0 0 1589.5918 406.8348"><defs><style>.cls-1{fill:#176938;}.cls-2{fill:#dda623;}.cls-3{fill:#fff;}.cls-4{fill:#166939;}</style></defs><title>logo institucional UniCatólica</title><path class="cls-1" d="M318.62379,257.7989s21.44671-11.9788,36.839-34.0871c15.3903-22.1057,17.537-40.3855,17.537-48.5015V91.4346L284.19809,66.325,195.5282,91.4346v83.7757c0,8.116,2.1467,26.3958,17.536,48.5015,15.3935,22.1083,36.839,34.0871,36.839,34.0871l34.29489,19.0662Z"/><path class="cls-2" d="M403.83819,91.4508v89.4675s.7527,43.4693-48.8586,80.5648-70.6927,46.1588-70.6927,46.1588-21.08309-9.0634-70.69649-46.1588c-49.6096-37.0955-48.8586-80.5648-48.8586-80.5648V91.4508L133.9411,77.8864l.0391,101.4122c0,58.4952,43.0666,98.4105,63.2823,112.9051,11.5745,8.2967,87.02439,55.8756,87.02439,55.8756s75.4472-47.5789,87.0265-55.8756c20.2135-14.4946,63.2737-54.38,63.2737-112.866l-.0423-101.4155Z"/><path class="cls-3" d="M356.32429,157.1197a77.71379,77.71379,0,0,0,6.5934-18.5517,62.51175,62.51175,0,0,0-9.0325-12.0157,66.55826,66.55826,0,0,1-6.051,23.7567,103.59468,103.59468,0,0,0-26.6456-13.5459V148.065a91.82523,91.82523,0,0,1,21.4286,11.5552,76.24048,76.24048,0,0,1-22.1682,21.7082q-2.8095,1.8198-5.7909,3.4117v11.8681c1.97-.9098,3.9059-1.872,5.7909-2.9044a88.0855,88.0855,0,0,0,30.3562-27.2491,71.55242,71.55242,0,0,1,15.511,21.2315,56.61075,56.61075,0,0,0,3.8001-14.7562,86.23127,86.23127,0,0,0-13.792-15.8103"/><path class="cls-3" d="M219.9553,164.4189a90.16716,90.16716,0,0,1,29.4974-17.1518V136.062a104.64953,104.64953,0,0,0-25.8246,12.2493,93.06586,93.06586,0,0,0-16.6621,13.9478,84.3507,84.3507,0,0,0-6.9477,8.3984,83.93162,83.93162,0,0,0,7.2403,8.1491,89.95022,89.95022,0,0,0,17.9841,13.7279,94.46478,94.46478,0,0,0,24.21,9.8821V191.4145a82.4181,82.4181,0,0,1-29.0963-15.1017,77.72146,77.72146,0,0,1-6.4915-5.9259,79.261,79.261,0,0,1,6.0904-5.968"/><path class="cls-3" d="M297.373,115.8944v86.1558c-.025.2118-.0629.4196-.0968.6301a15.42835,15.42835,0,0,1-29.78909,2.5779,15.13834,15.13834,0,0,1-.8107-3.9258,5.3444,5.3444,0,0,1-.116-.9213c-.0029-.085-.025-.1569-.025-.2407v-84.276l-10.5491,2.9883v81.2997a26.02582,26.02582,0,0,0,10.5491,20.9394,26.04471,26.04471,0,0,0,41.47239-19.0922,5.01535,5.01535,0,0,0,.119-1.1036V118.8827Z"/><polygon class="cls-3" points="232.52 168.327 233.999 165.821 232.089 167.896 231.176 164.472 230.264 167.896 228.349 165.825 229.907 168.33 226.404 169.244 229.912 170.153 228.353 172.071 230.264 170.588 231.18 174.012 232.089 170.588 234.004 172.064 232.52 170.148 235.949 169.24 232.52 168.327"/><path class="cls-3" d="M283.20989,165.9493c-4.4602-1.9871-7.72679-3.787-7.72679-8.926,0-4.0634,2.74759-7.2204,7.57779-7.2204a15.42557,15.42557,0,0,1,8.5295,2.6589v-5.7177c-2.6757-1.987-4.5897-2.7986-9.1244-2.7986-8.47469,0-13.30179,5.4982-13.30179,13.0778,0,8.7451,5.57,11.8083,11.22089,14.3361,4.67841,2.0707,8.103,4.0619,8.103,9.2014,0,4.7764-3.42459,7.8443-8.5504,7.8443a19.32947,19.32947,0,0,1-9.48959-3.005v6.9657a23.94634,23.94634,0,0,0,9.56579,2.1687c9.4379,0,14.9369-5.5931,14.9369-13.9737,0-9.1125-5.7957-11.907-11.7409-14.6115"/><path class="cls-1" d="M182.7668,257.1312l1.852-3.5428-3.7691,1.3084Zm.3414,6.6962-3.5951-4.1902.4224-.3635a7.41742,7.41742,0,0,0,.7025.6061c.2868.2172.4706.2914.5552.2193a.76637.76637,0,0,0,.0902-.0947.79521.79521,0,0,0,.1087-.1697l1.0384-2.0387-2.2893-2.6686c-.2041.0675-.4344.1507-.6982.2475-.2634.0986-.4958.1856-.6999.2674a4.00426,4.00426,0,0,0-.5469.2555,2.38109,2.38109,0,0,0-.2068.1471c-.117.0995-.1416.2715-.0729.5182a3.87058,3.87058,0,0,0,.578,1.0322l-.4224.3624-2.7085-3.1568.4224-.3625a3.84377,3.84377,0,0,0,.4032.3554,1.35083,1.35083,0,0,0,.4333.2444,1.76064,1.76064,0,0,0,.6441.1019,2.20664,2.20664,0,0,0,.671-.1275q2.06385-.68325,4.1382-1.3659,2.07585-.6819,4.5767-1.5016l.9306,1.0852q-1.7073,3.30675-2.7119,5.2145-1,1.9068-1.6391,3.1858a1.73292,1.73292,0,0,0-.1448.4348,1.55307,1.55307,0,0,0,.0159.525,1.60511,1.60511,0,0,0,.1698.4652,3.84026,3.84026,0,0,0,.2574.4094Zm-5.7587-11.7514-2.7445,1.7534-5.5182-7.5652.448-.3282c.1132.1278.2459.2726.4038.4343a2.31607,2.31607,0,0,0,.3363.3095.65653.65653,0,0,0,.4354.1236.91347.91347,0,0,0,.4292-.1867l5.7867-4.2212a1.01824,1.01824,0,0,0,.2974-.3155.71421.71421,0,0,0,.0209-.4849,2.32635,2.32635,0,0,0-.1857-.5295c-.0897-.1927-.1637-.3433-.2214-.4552l.4501-.3284,3.2798,4.497-.4492.3283c-.102-.1137-.2235-.2477-.3656-.3984a3.38566,3.38566,0,0,0-.4065-.3684.57677.57677,0,0,0-.452-.129,1.03093,1.03093,0,0,0-.4154.1879l-5.3983,3.9377a3.52139,3.52139,0,0,0-.565.4903.64784.64784,0,0,0-.1747.4381,1.09461,1.09461,0,0,0,.1645.5251,7.92557,7.92557,0,0,0,.5115.7649,8.69872,8.69872,0,0,0,.7128.8628,1.332,1.332,0,0,0,.6967.451,4.98624,4.98624,0,0,0,1.2722-.0009,10.70287,10.70287,0,0,0,1.3415-.2185Z"/><path class="cls-1" d="M239.5158,303.0783a4.22921,4.22921,0,0,0,1.1682-.8735,9.36454,9.36454,0,0,0,1.1161-1.4507,7.42074,7.42074,0,0,0,.8115-1.6674,4.32461,4.32461,0,0,0,.2318-1.5336,2.88589,2.88589,0,0,0-.3836-1.3279,3.00311,3.00311,0,0,0-1.011-1.0263c-.141-.0899-.3027-.1927-.4855-.2994-.1846-.1088-.3211-.1898-.4132-.2408l-4.1543,6.5008a1.31141,1.31141,0,0,0-.1867.4212.82589.82589,0,0,0,.0078.4174,1.13709,1.13709,0,0,0,.2159.4124,1.97808,1.97808,0,0,0,.485.4083,2.98675,2.98675,0,0,0,1.331.4941,2.37385,2.37385,0,0,0,1.267-.2346m5.1479-5.3493a4.599,4.599,0,0,1,.3941,2.1712,4.982,4.982,0,0,1-.8545,2.3972,4.65518,4.65518,0,0,1-1.6405,1.6124,4.48086,4.48086,0,0,1-1.9828.5881,6.07215,6.07215,0,0,1-2.1304-.2875,8.65386,8.65386,0,0,1-2.0859-.9803l-4.3109-2.7556.3004-.4691c.132.0788.3007.1706.5064.2725a1.72223,1.72223,0,0,0,.4342.1756.68505.68505,0,0,0,.4582-.0499.8904.8904,0,0,0,.3225-.3166l3.8757-6.0642a1.04979,1.04979,0,0,0,.1609-.4222.69013.69013,0,0,0-.1349-.4613,2.09712,2.09712,0,0,0-.3945-.4495c-.1546-.1319-.2733-.2314-.3624-.2995l.3009-.469,4.5445,2.9053a8.51684,8.51684,0,0,1,1.4407,1.1832A5.73542,5.73542,0,0,1,244.6637,297.729Zm-14.939-3.6113.7655-3.9238-3.2396,2.3293Zm2.2371,6.3219-4.6425-2.992.3016-.4677a7.23768,7.23768,0,0,0,.8477.3796c.3362.1267.534.1446.5931.052a.81256.81256,0,0,0,.0599-.1148.757.757,0,0,0,.0566-.1967l.4125-2.2486-2.9532-1.9058c-.1759.1227-.3723.2698-.5981.4372-.2258.1688-.4234.3197-.595.4552a3.94162,3.94162,0,0,0-.4514.4015,1.82358,1.82358,0,0,0-.1578.2008c-.0818.1275-.0579.2995.0788.516a3.858,3.858,0,0,0,.8489.8247l-.3026.4684-3.4953-2.2547.3004-.4681a3.619,3.619,0,0,0,.4892.2258,1.36181,1.36181,0,0,0,.4843.1107,1.75655,1.75655,0,0,0,.645-.086,2.1479,2.1479,0,0,0,.6079-.3145q1.7835-1.24125,3.5774-2.487,1.79685-1.2441,3.9596-2.7444l1.2.7738q-.6933,3.65865-1.1121,5.7729c-.2767,1.4093-.5011,2.5826-.6649,3.5212a1.72654,1.72654,0,0,0-.0119.4562,1.54451,1.54451,0,0,0,.1626.5003,1.60314,1.60314,0,0,0,.2956.3972,3.69744,3.69744,0,0,0,.3652.3194Zm-11.9679-9.9392a4.22754,4.22754,0,0,0,1.1695-.8706,9.34435,9.34435,0,0,0,1.121-1.4476,7.361,7.361,0,0,0,.8147-1.6652,4.36578,4.36578,0,0,0,.2378-1.5335,2.87688,2.87688,0,0,0-.3815-1.327,3.00241,3.00241,0,0,0-1.0084-1.0316c-.1419-.0899-.3036-.1926-.4864-.2992-.1824-.1091-.3194-.1891-.4111-.2417l-4.1695,6.4905a1.33583,1.33583,0,0,0-.1897.4194.83037.83037,0,0,0,.0081.4182,1.12045,1.12045,0,0,0,.2147.4124,1.8987,1.8987,0,0,0,.4839.4094,2.98771,2.98771,0,0,0,1.3301.4983A2.3725,2.3725,0,0,0,219.9939,290.5004Zm5.161-5.3373a4.61086,4.61086,0,0,1,.3893,2.1733,4.99419,4.99419,0,0,1-.8598,2.3951,4.66825,4.66825,0,0,1-1.6442,1.6086,4.496,4.496,0,0,1-1.9857.5839,6.1084,6.1084,0,0,1-2.1287-.2943,8.63168,8.63168,0,0,1-2.0837-.9856l-4.3041-2.7654.3005-.4693q.198.1182.5065.2748a1.70058,1.70058,0,0,0,.4348.1763.68369.68369,0,0,0,.4565-.049.88007.88007,0,0,0,.3234-.3161l3.892-6.0552a1.0518,1.0518,0,0,0,.1605-.4207.69435.69435,0,0,0-.1328-.4621,2.142,2.142,0,0,0-.3924-.4504c-.1557-.1327-.2743-.2324-.3635-.3004l.3027-.467,4.5378,2.9162a8.40234,8.40234,0,0,1,1.4368,1.1871A5.70141,5.70141,0,0,1,225.1549,285.1631Zm-12.3655-6.1794a1.80814,1.80814,0,0,0,.3798-1.5461,2.48108,2.48108,0,0,0-1.0683-1.3158l-.4663-.3259-2.4331,3.5007.449.3115a2.291,2.291,0,0,0,1.6585.4832A2.31639,2.31639,0,0,0,212.7894,278.9837Zm-.3163,8.9738-3.1937-2.2214c.0337-1.2288.0441-2.2194.0238-2.9732-.0158-.7548-.0701-1.6481-.1556-2.6827l-.3298-.2306-1.7582,2.5277a.88448.88448,0,0,0-.1687.4104.73118.73118,0,0,0,.1322.4574,2.35811,2.35811,0,0,0,.2835.3413,4.82961,4.82961,0,0,0,.3614.3515l-.3168.4573-4.4499-3.0928.3168-.4575c.1236.0679.2853.1568.486.2645a2.15031,2.15031,0,0,0,.4554.1969.69788.69788,0,0,0,.4654-.0282.96515.96515,0,0,0,.3314-.3144l4.0874-5.8803a1.02722,1.02722,0,0,0,.1806-.3976.69665.69665,0,0,0-.1409-.4632,3.16156,3.16156,0,0,0-.3542-.4402c-.1497-.1539-.2646-.2728-.3525-.3585l.3187-.4563,4.6801,3.2536a5.71373,5.71373,0,0,1,2.0408,2.1476,1.97071,1.97071,0,0,1-.2185,2.052,2.40048,2.40048,0,0,1-1.4838,1.0581,4.07651,4.07651,0,0,1-2.1077-.2326q.04095.79515.1001,1.8449c.0388.6999.086,1.4221.1399,2.1605q.022.35505.1078.9039a1.74086,1.74086,0,0,0,.2725.7925,2.49692,2.49692,0,0,0,.2934.3095c.1247.117.2156.1975.2716.2417Zm-6.0562-13.5151-.4305-.3525a3.80839,3.80839,0,0,0,.1877-1.3611,1.92648,1.92648,0,0,0-.3341-1.1819,3.48245,3.48245,0,0,0-.4234-.4246c-.192-.1677-.3565-.3031-.4853-.4082l-1.1392-.9304-2.482,3.0401.8076.6597a2.5212,2.5212,0,0,0,.6151.3816,1.35439,1.35439,0,0,0,.679.0929,1.77393,1.77393,0,0,0,.6269-.2378,3.6984,3.6984,0,0,0,.629-.4232l.43.3515-2.6784,3.2767-.4304-.3514a3.75048,3.75048,0,0,0,.3085-.7219,2.07589,2.07589,0,0,0,.136-.6949,1.21311,1.21311,0,0,0-.2089-.629,2.54865,2.54865,0,0,0-.5149-.545l-.8081-.66-1.854,2.2674a2.94635,2.94635,0,0,0-.4071.606.70787.70787,0,0,0-.0659.4803,1.04312,1.04312,0,0,0,.2673.448,6.43108,6.43108,0,0,0,.6312.5713c.1289.1058.2835.2308.4692.3755a5.33686,5.33686,0,0,0,.5053.3544,3.54763,3.54763,0,0,0,.5041.2742.80537.80537,0,0,0,.4315.0843,5.82035,5.82035,0,0,0,1.2788-.3416,7.64267,7.64267,0,0,0,1.1211-.4783l.4086.3334-2.1506,2.3283-7.3834-6.0314.3536-.43c.1087.0767.2616.1765.4581.3015a2.27274,2.27274,0,0,0,.4443.2298.68175.68175,0,0,0,.4646.0076.958.958,0,0,0,.3563-.2863l4.5305-5.5471a1.01924,1.01924,0,0,0,.2096-.3786.728.728,0,0,0-.1029-.4762,2.64256,2.64256,0,0,0-.3052-.4553c-.1459-.1776-.2576-.3105-.3364-.3942l.3515-.4305,6.9746,5.6987Zm-5.9045-7.4074a2.19364,2.19364,0,0,0-.3843-.2483,2.04652,2.04652,0,0,0-.4592-.161,1.77067,1.77067,0,0,0-.6111-.0501,2.65538,2.65538,0,0,0-.627.18q-.4971.20655-1.4448.615-.942.4131-2.1474.9356-1.08315.47325-2.3605,1.0433c-.8524.3823-1.667.7487-2.4501,1.099l-1.0401-.9914q.966-2.466,1.9598-5.0179.99435-2.5503,1.3687-3.5542a2.34857,2.34857,0,0,0,.1409-.6149,1.88805,1.88805,0,0,0-.0941-.6073,1.99658,1.99658,0,0,0-.1824-.4333,3.48153,3.48153,0,0,0-.2896-.4092l.3833-.4046,3.9818,3.7851-.3734.3935a5.43453,5.43453,0,0,0-.8929-.5773c-.1763-.0736-.3043-.0736-.3771.0031a.74982.74982,0,0,0-.099.1377c-.0279.0538-.0639.131-.1106.2258q-.2652.6156-.8148,2.0635-.55155,1.4499-1.7093,4.3832,1.752-.79515,2.9453-1.3548c.7968-.3753,1.5025-.704,2.1116-.9937q.44475-.2097.8068-.4162a2.41669,2.41669,0,0,0,.496-.3533c.1039-.1088.1149-.2794.0239-.5054a3.977,3.977,0,0,0-.7348-1.0072l.3946-.4153,2.9833,2.8353Z"/><path class="cls-1" d="M267.4811,323.5035a6.21406,6.21406,0,0,1-1.3402-1.1271,6.51166,6.51166,0,0,1-.8584-1.194l-.6851.1584-.5169-.3303,1.89-3.1379.519.3316a9.5884,9.5884,0,0,0-.1437,1.2109,5.43454,5.43454,0,0,0,.0748,1.27,3.69257,3.69257,0,0,0,.4085,1.1792,2.52806,2.52806,0,0,0,.9034.9312,2.15079,2.15079,0,0,0,1.5117.4006,1.55833,1.55833,0,0,0,1.0792-.732,1.29193,1.29193,0,0,0,.1617-1.0731,3.68379,3.68379,0,0,0-.7737-1.3198c-.2706-.3255-.5173-.6263-.7397-.8967-.2258-.2745-.4305-.5373-.6222-.7947a3.13832,3.13832,0,0,1-.654-1.8012,3.03658,3.03658,0,0,1,.4915-1.6983,2.60727,2.60727,0,0,1,.8315-.8256,2.99677,2.99677,0,0,1,1.162-.4275,3.64436,3.64436,0,0,1,1.3761.0868,4.78683,4.78683,0,0,1,1.4933.642,5.06432,5.06432,0,0,1,1.2071,1.0493,6.44048,6.44048,0,0,1,.727,1.0186l.5969-.1266.5213.3281-1.8063,2.9505-.519-.3296c.0788-.3923.1427-.8027.1867-1.2338a4.88542,4.88542,0,0,0,.0038-1.1456,2.76824,2.76824,0,0,0-.3265-.992,2.2333,2.2333,0,0,0-.7727-.7847,1.82634,1.82634,0,0,0-1.2979-.3067,1.3869,1.3869,0,0,0-.9933.651,1.27443,1.27443,0,0,0-.1748,1.0653,3.73175,3.73175,0,0,0,.7549,1.288c.2346.2905.473.584.7207.8794.2448.2999.4592.5692.642.8168a3.52123,3.52123,0,0,1,.738,1.7832,2.96844,2.96844,0,0,1-1.4269,2.6754,2.988,2.988,0,0,1-1.2511.4216,4.25793,4.25793,0,0,1-1.4884-.126,5.65244,5.65244,0,0,1-1.6103-.7347m-6.2429-6.396a5.41037,5.41037,0,0,0,1.1858-.9992,11.12179,11.12179,0,0,0,1.1194-1.4937,11.86812,11.86812,0,0,0,.8175-1.5172,5.44412,5.44412,0,0,0,.4363-1.4839,2.76971,2.76971,0,0,0-.1257-1.3218,2.00777,2.00777,0,0,0-.8548-1.0125,2.137,2.137,0,0,0-2.3221-.0188,7.35126,7.35126,0,0,0-2.4303,2.5718,10.449,10.449,0,0,0-.8437,1.5994,5.354,5.354,0,0,0-.4031,1.4938,2.69733,2.69733,0,0,0,.1545,1.276,2.25456,2.25456,0,0,0,2.0569,1.3007A2.514,2.514,0,0,0,261.2382,317.1075Zm5.4479-5.1486a5.01931,5.01931,0,0,1,.1137,2.038,5.32438,5.32438,0,0,1-.8175,2.1075,6.04478,6.04478,0,0,1-1.4457,1.5806,4.93922,4.93922,0,0,1-1.8312.8816,5.28809,5.28809,0,0,1-2.0865.0567,6.57306,6.57306,0,0,1-3.794-2.3473,5.218,5.218,0,0,1-.8954-1.8257,4.93744,4.93744,0,0,1-.1088-2.0261,5.26061,5.26061,0,0,1,.7937-2.0647,5.78508,5.78508,0,0,1,1.5693-1.6751,5.19732,5.19732,0,0,1,1.9171-.8358,5.04942,5.04942,0,0,1,2.0614.018,6.2834,6.2834,0,0,1,3.6234,2.2893A5.29561,5.29561,0,0,1,266.6861,311.9589Zm-11.3768-.4471-1.9145,2.6358-7.8995-5.0311.2994-.4712c.1507.079.3275.1648.5343.2598a2.2472,2.2472,0,0,0,.425.1626.64968.64968,0,0,0,.4506-.0408.93053.93053,0,0,0,.3313-.3315l3.8487-6.0416a1.0145,1.0145,0,0,0,.162-.4011.72888.72888,0,0,0-.1578-.4603,2.39369,2.39369,0,0,0-.3666-.4255c-.1526-.1465-.2775-.2597-.3712-.3434l.2994-.4681,4.6945,2.9904-.2996.4689c-.1367-.0689-.2983-.1495-.485-.2376a3.408,3.408,0,0,0-.5122-.1954.58213.58213,0,0,0-.4695.0457,1.06046,1.06046,0,0,0-.3184.3265l-3.5902,5.636a3.66459,3.66459,0,0,0-.3474.6609.65812.65812,0,0,0-.0012.4745,1.1104,1.1104,0,0,0,.3446.427,8.12355,8.12355,0,0,0,.7547.527,9.10145,9.10145,0,0,0,.9768.5415,1.31852,1.31852,0,0,0,.8155.1655,4.95846,4.95846,0,0,0,1.1838-.4645,10.6748,10.6748,0,0,0,1.1684-.6916Z"/><path class="cls-1" d="M393.05339,258.3399a6.22009,6.22009,0,0,1-1.2751,1.1991,6.44378,6.44378,0,0,1-1.2865.7119l.0778.6978-.3875.4766-2.8955-2.2427.3885-.4793a9.50637,9.50637,0,0,0,1.1863.2836,5.33147,5.33147,0,0,0,1.2708.0749,3.72232,3.72232,0,0,0,1.2189-.2653,2.54157,2.54157,0,0,0,1.0297-.7889,2.15126,2.15126,0,0,0,.57471-1.4556,1.56212,1.56212,0,0,0-.60081-1.1573,1.30338,1.30338,0,0,0-1.0475-.2886,3.75621,3.75621,0,0,0-1.4015.6161c-.3536.2318-.6819.4414-.9768.6312-.2981.1926-.5839.3653-.8613.5231a3.12717,3.12717,0,0,1-1.8652.439,3.03593,3.03593,0,0,1-1.6302-.6846,2.65116,2.65116,0,0,1-.7218-.9235,3.00144,3.00144,0,0,1-.2888-1.2042,3.64026,3.64026,0,0,1,.2465-1.3578,4.80155,4.80155,0,0,1,.813-1.4056,5.1,5.1,0,0,1,1.1831-1.0774,6.4752,6.4752,0,0,1,1.097-.6019l-.0576-.6101.3892-.4773,2.71771,2.1394-.38821.4764c-.3797-.1248-.77979-.2355-1.2032-.3295a4.89429,4.89429,0,0,0-1.1362-.1389,2.78668,2.78668,0,0,0-1.0242.2091,2.218,2.218,0,0,0-.8689.6757,1.8214,1.8214,0,0,0-.45729,1.2519,1.39986,1.39986,0,0,0,.53009,1.0642,1.27715,1.27715,0,0,0,1.0384.2976,3.71336,3.71336,0,0,0,1.3669-.5989c.3157-.1988.6339-.4024.9585-.613.3246-.2088.62011-.3906.8856-.5415a3.549,3.549,0,0,1,1.8569-.526,2.97146,2.97146,0,0,1,2.4913,1.7303,3.01732,3.01732,0,0,1,.2716,1.2909,4.22154,4.22154,0,0,1-.2988,1.4645,5.69077,5.69077,0,0,1-.9196,1.5146m-10.1155-.3032-.3836.4021a3.90424,3.90424,0,0,0-1.3437-.2905,1.93658,1.93658,0,0,0-1.20209.2459,3.36021,3.36021,0,0,0-.45711.3901c-.1801.1776-.3276.3316-.4425.4524l-1.01539,1.0653,2.84459,2.7055.7187-.755a2.60973,2.60973,0,0,0,.4284-.5855,1.38625,1.38625,0,0,0,.1437-.6704,1.78733,1.78733,0,0,0-.1906-.6428,3.6954,3.6954,0,0,0-.3754-.6579l.3832-.4023,3.0663,2.9164-.3836.4032a3.81568,3.81568,0,0,0-.696-.3623,2.06463,2.06463,0,0,0-.6829-.1878,1.20294,1.20294,0,0,0-.6417.1594,2.5441,2.5441,0,0,0-.5842.4735l-.7197.7559,2.1214,2.0196a2.99769,2.99769,0,0,0,.5752.4524.71459.71459,0,0,0,.4733.1009,1.03976,1.03976,0,0,0,.467-.2328,6.23644,6.23644,0,0,0,.6182-.5861c.1148-.1207.2497-.2657.40711-.4394a4.7067,4.7067,0,0,0,.39239-.4761,3.69055,3.69055,0,0,0,.3129-.4822.82638.82638,0,0,0,.1164-.4243,5.839,5.839,0,0,0-.2454-1.3007,7.48,7.48,0,0,0-.3914-1.1543l.3635-.3836,2.1594,2.3227-6.5715,6.9068-.4042-.3855c.0858-.1038.1968-.2473.3365-.4352a2.22962,2.22962,0,0,0,.2635-.4244.69467.69467,0,0,0,.0441-.4631.96113.96113,0,0,0-.2607-.3755l-5.1889-4.9379a1.0144,1.0144,0,0,0-.3623-.2377.73011.73011,0,0,0-.4812.0678,2.49235,2.49235,0,0,0-.4783.2694c-.1876.1319-.3286.2336-.4191.3076l-.4026-.3855,6.2103-6.5252Zm-10.116,10.0119a1.81272,1.81272,0,0,0-1.4196-.7199,2.49189,2.49189,0,0,0-1.5237.7418l-.4224.3803,2.8565,3.1629.4054-.3663a2.283,2.283,0,0,0,.8457-1.5067A2.31244,2.31244,0,0,0,372.82189,268.0486Zm8.668,2.3422-2.88639,2.6089c-1.19091-.3117-2.15231-.5473-2.89131-.6991q-1.10953-.2307-2.6496-.4563l-.2984.2685,2.0637,2.2854a.8864.8864,0,0,0,.3623.2576.73853.73853,0,0,0,.4751-.024,2.38995,2.38995,0,0,0,.3956-.1987c.1715-.0985.3113-.1916.4262-.2725l.3722.4135-4.0221,3.6321-.37169-.4122c.092-.1059.21559-.2427.36629-.4147a2.19556,2.19556,0,0,0,.2949-.3983.6914.6914,0,0,0,.07881-.4592.96061.96061,0,0,0-.23071-.3951l-4.80129-5.3146a1.02638,1.02638,0,0,0-.34651-.2655.6818.6818,0,0,0-.4823.0327,3.202,3.202,0,0,0-.5083.2438c-.1846.1098-.3265.1964-.4293.2616l-.3733-.4104,4.2305-3.8228a5.7236,5.7236,0,0,1,2.5548-1.5008,1.96665,1.96665,0,0,1,1.9478.6791,2.397,2.397,0,0,1,.696,1.6843,4.09482,4.09482,0,0,1-.7041,2.0008q.7803.1407,1.8181.3195,1.0365.18105,2.1354.3545c.2339.0377.5364.0717.9056.0995a1.71626,1.71626,0,0,0,.8349-.0856,2.46991,2.46991,0,0,0,.3664-.2159c.1427-.0937.2417-.1666.29731-.2074Zm-14.2019,8.4673a2.0705,2.0705,0,0,0-1.473-.9345,2.608,2.608,0,0,0-1.7938.6171c-.0728.0539-.1681.1257-.2845.2226-.1149.0929-.2008.1666-.2547.2116l2.20451,2.9953a.72753.72753,0,0,0,.58769.1234,1.665,1.665,0,0,0,.764-.3383,1.80112,1.80112,0,0,0,.7778-1.2827A2.28557,2.28557,0,0,0,367.288,278.8581Zm-3.2968-3.6371a1.77266,1.77266,0,0,0-1.1661-.7808,1.94616,1.94616,0,0,0-1.43059.4702c-.073.0529-.166.123-.27971.2156-.1148.095-.2107.1739-.2906.2399l2.2322,3.0321.2987-.2208a2.37515,2.37515,0,0,0,1.0591-1.4507A1.95485,1.95485,0,0,0,363.99119,275.221Zm3.662,1.1011a2.53852,2.53852,0,0,1,1.0662.1969,2.15293,2.15293,0,0,1,.8957.7317,2.46467,2.46467,0,0,1,.511,1.244,2.25467,2.25467,0,0,1-.25359,1.2313,4.92348,4.92348,0,0,1-.91821,1.2505,12.89044,12.89044,0,0,1-1.5117,1.2842l-4.2453,3.1239-.3292-.4474c.1106-.1007.2483-.2275.4142-.3842a2.19035,2.19035,0,0,0,.3227-.3614.69129.69129,0,0,0,.12251-.4413.90928.90928,0,0,0-.19051-.4252l-4.2424-5.7618a1.03655,1.03655,0,0,0-.3163-.2988.69344.69344,0,0,0-.4844-.0168,2.53732,2.53732,0,0,0-.5081.1845c-.1846.0831-.3402.159-.47629.2268l-.32931-.4471,4.4368-3.2678a5.90434,5.90434,0,0,1,2.7554-1.317,1.86354,1.86354,0,0,1,1.7445.8107,1.89637,1.89637,0,0,1,.3685.8517,1.94766,1.94766,0,0,1-.0783.8945,3.31076,3.31076,0,0,1-.4012.8627,6.86358,6.86358,0,0,1-.648.8777l.0827.1137a5.628,5.628,0,0,1,1.0807-.4892A3.97232,3.97232,0,0,1,367.65319,276.3221Zm-6.0013,10.1078-4.6616,3.121-.3095-.4622c.10171-.081.24871-.1969.4454-.3525a1.81358,1.81358,0,0,0,.3804-.3581.68387.68387,0,0,0,.1427-.4355.93066.93066,0,0,0-.1687-.4253l-4.0046-5.9786a.94905.94905,0,0,0-.31549-.3065.66156.66156,0,0,0-.47041-.0467,2.86721,2.86721,0,0,0-.5012.1594,5.395,5.395,0,0,0-.5371.2339l-.3085-.464,4.6616-3.1204.3085.4634c-.1077.0899-.2466.2059-.4092.3475a3.37766,3.37766,0,0,0-.3875.3912.59.59,0,0,0-.1468.4474,1.05209,1.05209,0,0,0,.1717.4232l4.0005,5.9766a.9624.9624,0,0,0,.3247.3122.69917.69917,0,0,0,.4703.0423,2.26506,2.26506,0,0,0,.4801-.1719,4.92574,4.92574,0,0,0,.524-.2586Zm-7.5739,1.1254,1.5933,2.8422-7.8722,5.073-.3005-.468c.1327-.1039.2856-.229.4571-.3767a2.22392,2.22392,0,0,0,.3265-.3184.65282.65282,0,0,0,.1507-.4275.90852.90852,0,0,0-.1637-.4393l-3.8786-6.0203a1.03759,1.03759,0,0,0-.2976-.3155.71814.71814,0,0,0-.4833-.048,2.14954,2.14954,0,0,0-.5399.155c-.1958.0767-.3515.1428-.46729.1937l-.30041-.4684,4.6773-3.0151.3025.4672c-.1197.0959-.2605.2098-.4183.3427a3.33942,3.33942,0,0,0-.3914.3843.58418.58418,0,0,0-.1556.4443,1.04893,1.04893,0,0,0,.1648.4264l3.6189,5.6159a3.54515,3.54515,0,0,0,.4565.5928.65168.65168,0,0,0,.4282.1986,1.10135,1.10135,0,0,0,.533-.1334,8.10809,8.10809,0,0,0,.795-.4664,8.55316,8.55316,0,0,0,.90051-.6621,1.32592,1.32592,0,0,0,.49109-.6699,4.98728,4.98728,0,0,0,.0718-1.2699,10.25744,10.25744,0,0,0-.1405-1.3508Zm-19.9878,1.7222a.67828.67828,0,0,1,.1098.5169,1.52418,1.52418,0,0,1-.2654.5721q-.252.3567-.76409,1.0346c-.34341.4511-.73081.9953-1.163,1.6234l-.35641-.119c.1578-.6517.2733-1.1561.3455-1.5056.0746-.3565.1465-.7267.2174-1.1172a1.98667,1.98667,0,0,1,.2149-.6329,1.161,1.161,0,0,1,.3734-.3945,1.38906,1.38906,0,0,1,.7526-.2476A.58827.58827,0,0,1,334.09019,289.2775Zm3.0659,8.1857-3.2547-2.3222.7787,3.9137Zm6.6795.5803-4.6446,2.986-.3006-.4681a6.97215,6.97215,0,0,0,.6958-.6139c.2546-.2536.3535-.4253.2935-.5175a.73012.73012,0,0,0-.0798-.1026.82477.82477,0,0,0-.1557-.1329l-1.8759-1.3067-2.9581,1.902c.0407.2084.0915.449.1507.7238.0598.2752.1148.5169.1675.7307a3.779,3.779,0,0,0,.1786.5769,2.22158,2.22158,0,0,0,.1181.2256c.0816.1269.2487.177.5022.143a3.92727,3.92727,0,0,0,1.1031-.4321l.3004.4689-3.5002,2.2493-.3005-.4661a4.32582,4.32582,0,0,0,.4071-.3536,1.36838,1.36838,0,0,0,.3017-.3951,1.74885,1.74885,0,0,0,.1898-.623,2.236,2.236,0,0,0-.0349-.683q-.3927-2.1369-.7841-4.2873-.38925-2.14905-.85819-4.7392l1.20089-.7718q3.04335,2.1444,4.7943,3.4014,1.752,1.2552,2.9291,2.0627a1.72579,1.72579,0,0,0,.4114.201,1.50548,1.50548,0,0,0,.52231.0567,1.59257,1.59257,0,0,0,.48429-.1027,4.17116,4.17116,0,0,0,.4413-.2008Zm-18.2169,2.7188a1.82052,1.82052,0,0,0-1.2809-.945,2.5151,2.5151,0,0,0-1.6254.4813l-.4802.3076,2.2954,3.5883.46-.2945a2.28639,2.28639,0,0,0,1.0845-1.344A2.32279,2.32279,0,0,0,325.61869,300.7623Zm8.162,3.7428-3.2779,2.0956q-1.68315-.75645-2.7355-1.166-1.0545-.4122-2.537-.8887l-.3396.2176,1.6575,2.5939a.87181.87181,0,0,0,.31631.3127.73134.73134,0,0,0,.47229.0566,2.60193,2.60193,0,0,0,.4234-.1317c.1839-.0699.3375-.1366.4632-.1985l.3007.469-4.5678,2.9186-.2983-.4696c.10951-.0866.25151-.2036.4289-.3475a2.04792,2.04792,0,0,0,.3565-.3443.68566.68566,0,0,0,.1539-.4381.95952.95952,0,0,0-.1617-.4285l-3.8567-6.0342a1.03268,1.03268,0,0,0-.2975-.3195.69562.69562,0,0,0-.4834-.0479,3.04156,3.04156,0,0,0-.5414.1578c-.1992.0788-.3542.1396-.4658.1865l-.2998-.4684,4.8024-3.0687a5.70271,5.70271,0,0,1,2.7685-1.0596,1.96954,1.96954,0,0,1,1.8092.9895,2.40962,2.40962,0,0,1,.4083,1.7771,4.11219,4.11219,0,0,1-1.0263,1.8581q.74835.26655,1.7413.6148c.6617.2328,1.3458.4696,2.0485.7021.22461.0778.5151.1597.8755.2474a1.72355,1.72355,0,0,0,.8379.0541,2.51231,2.51231,0,0,0,.3973-.1518c.1547-.0688.2657-.1247.3283-.1578Zm-17.3533,6.2109-3.245-2.3341.7619,3.9177Zm6.6773.6112-4.6573,2.9653-.2998-.4696a7.35134,7.35134,0,0,0,.69991-.6101c.25569-.2514.35359-.4251.29439-.519a.79775.79775,0,0,0-.0785-.1009.77418.77418,0,0,0-.15389-.1326l-1.87321-1.3159-2.9642,1.8888c.0391.2088.0887.4512.1469.7248.0598.2759.1137.5182.16551.7332a3.76269,3.76269,0,0,0,.17579.5749,2.039,2.039,0,0,0,.117.2277c.0817.1268.2475.1773.5021.1436a3.88925,3.88925,0,0,0,1.1032-.4254l.2986.4694-3.5083,2.2334-.2986-.4673a4.08487,4.08487,0,0,0,.4081-.3515,1.34726,1.34726,0,0,0,.3048-.3932,1.77256,1.77256,0,0,0,.1904-.623,2.18128,2.18128,0,0,0-.0316-.6819q-.38355-2.1402-.7658-4.2903-.37935-2.15175-.8389-4.7434l1.20421-.7676q3.03569,2.15835,4.78029,3.4234c1.1645.8388,2.1375,1.5337,2.9205,2.0738a1.66735,1.66735,0,0,0,.4113.2016,1.46519,1.46519,0,0,0,.522.0608,1.57357,1.57357,0,0,0,.4843-.1028,3.28862,3.28862,0,0,0,.4414-.1975Zm-10.8816,6.9318-4.63559,2.9481-.29831-.4702c.0968-.0719.23631-.1807.4202-.3204a1.50227,1.50227,0,0,0,.3533-.3244.70853.70853,0,0,0,.1567-.4355.88346.88346,0,0,0-.1557-.4312l-1.8808-2.9583-3.67,2.3353,1.8378,2.8885a.85523.85523,0,0,0,.3216.3126.70363.70363,0,0,0,.462.0668,2.82313,2.82313,0,0,0,.4584-.1479c.2099-.085.3744-.1567.4983-.2216l.2986.4672-4.6346,2.9482-.29949-.4693c.09869-.0707.23959-.1756.41919-.3224a2.35745,2.35745,0,0,0,.3764-.3545.63618.63618,0,0,0,.153-.4303.96314.96314,0,0,0-.1567-.4332l-3.853-6.0601a.88308.88308,0,0,0-.3035-.3076.74144.74144,0,0,0-.4723-.055,2.73233,2.73233,0,0,0-.552.1509,3.98545,3.98545,0,0,0-.4603.1856l-.29979-.4682,4.63689-2.9493.2972.47c-.1197.0881-.2545.2036-.4102.3446-.1518.1448-.2667.2606-.3424.3455a.56812.56812,0,0,0-.1507.4491,1.01057,1.01057,0,0,0,.1567.4125l1.6254,2.5588,3.6722-2.3341-1.5906-2.498a.86451.86451,0,0,0-.3046-.3074.815.815,0,0,0-.4751-.0532,2.8212,2.8212,0,0,0-.5082.1359,4.56289,4.56289,0,0,0-.4732.1837l-.29739-.4683,4.63429-2.9484.29971.4696a4.906,4.906,0,0,0-.40431.3293,3.9201,3.9201,0,0,0-.3734.3775.59093.59093,0,0,0-.1518.4433,1.00364,1.00364,0,0,0,.1557.4172l3.8599,6.0704a.95073.95073,0,0,0,.3113.3174.71131.71131,0,0,0,.4691.0577,2.667,2.667,0,0,0,.49251-.1586c.20349-.0857.36729-.1625.48919-.2279Z"/><path class="cls-1" d="M1458.9489,263.6368c0,5.0618-3.2656,7.076-8.873,7.076h-4.6255V257.4337a16.04052,16.04052,0,0,1,5.2797-.8161c5.6051,0,8.2188,2.666,8.2188,7.0192m8.1089,28.2467-5.8784-12.899c-1.1438-2.5025-2.612-4.5169-4.6265-5.5512v-.1095c4.6803-1.0331,8.4363-3.9719,8.4363-9.9571,0-6.968-4.8994-11.485-14.3685-11.485a29.189,29.189,0,0,0-11.2111,2.1224v37.8794h6.0408V275.1747h3.4829c2.9944,0,4.845,1.579,6.0418,4.2452l5.5513,12.4636Zm-33.1004-11.4837V252.4801h-6.1505v27.9753c0,4.1885-3.1026,6.6927-6.9668,6.6927-3.8635,0-6.9652-2.5042-6.9652-6.6927V252.4801h-6.15v27.9197c0,7.62,5.7135,12.0276,13.1152,12.0276C1428.2428,292.4274,1433.9574,288.0198,1433.9574,280.3998Zm-30.3252.4357c0-6.7489-5.4415-9.4706-9.9047-11.5379-3.3201-1.5235-6.6394-3.3203-6.6394-6.6395,0-3.4288,2.6664-5.4971,6.53-5.4971a15.03762,15.03762,0,0,1,6.6951,1.7967l1.9588-5.0079a18.04938,18.04938,0,0,0-8.8702-2.0681c-7.5114,0-12.4637,4.2993-12.4637,11.1035,0,6.6938,5.4419,9.5236,10.1236,11.646,3.3188,1.4696,6.3124,3.1014,6.3124,6.4759,0,3.6465-2.9392,5.8784-7.2924,5.8784a16.70462,16.70462,0,0,1-7.4563-1.905l-2.1225,5.3326a22.54533,22.54533,0,0,0,9.7963,2.0681C1398.4624,292.4812,1403.6322,287.9104,1403.6322,280.8355Zm-32.8731,11.048v-5.1707h-13.5506V252.4801h-6.1505v39.4034Zm-23.7383,0v-5.1707h-14.6391V274.305h13.3335v-5.0625h-13.3335V257.6501h14.6391v-5.17h-20.6796v39.4034Zm-31.0305-19.701c0,10.6117-4.6251,15.1288-10.7212,15.1288a12.29025,12.29025,0,0,1-4.7347-.7624v-28.735a12.46637,12.46637,0,0,1,4.7347-.761C1311.3652,257.0529,1315.9903,261.5685,1315.9903,272.1825Zm6.1499,0c0-13.3884-6.8016-20.3008-17.197-20.3008a25.38919,25.38919,0,0,0-10.558,2.0681v36.4633a25.27046,25.27046,0,0,0,10.558,2.0681C1315.3386,292.4812,1322.1402,285.57,1322.1402,272.1825Zm-49.3078,4.7334h-12.0826l4.8427-14.6931a39.50789,39.50789,0,0,0,1.1438-4.6807h.1096a39.66887,39.66887,0,0,0,1.1424,4.6807Zm11.1566,14.9676-13.6062-39.4034h-7.1834l-13.6062,39.4034h6.4207l3.4839-10.395h14.5854l3.4826,10.395Zm-34.7323-1.4704-2.0142-5.0067a10.455,10.455,0,0,1-5.8234,1.5791c-5.5514,0-9.8503-4.8441-9.8503-14.8581s4.2989-14.8568,9.8503-14.8568a10.43586,10.43586,0,0,1,5.8234,1.6328l2.0142-4.9536a16.53492,16.53492,0,0,0-8.4919-2.0681c-8.49,0-15.5652,6.5313-15.5652,20.3008,0,13.7687,7.0752,20.2987,15.5652,20.2987A16.2172,16.2172,0,0,0,1249.2567,290.4131Zm-28.312,1.4704V252.4801h-6.1499v39.4034Zm-9.426,0v-5.1707h-13.5506V252.4801h-6.1503v39.4034Zm-32.3378-49.9607a2.48133,2.48133,0,0,0-2.5026-1.4152,4.81646,4.81646,0,0,0-3.4288,1.4152l-3.918,7.129h4.2438Zm2.2307,30.2597c0,8.5974-3.1016,14.8573-9.034,14.8573-5.9309,0-9.034-6.2599-9.034-14.8573,0-8.5995,3.1031-14.8581,9.034-14.8581C1178.31,257.3244,1181.4116,263.583,1181.4116,272.1825Zm6.1501,0c0-11.3198-5.0062-20.3008-15.1841-20.3008-10.1773,0-15.1838,8.981-15.1838,20.3008,0,11.3191,5.0065,20.2987,15.1838,20.2987C1182.5555,292.4812,1187.5617,283.5016,1187.5617,272.1825Zm-30.8131-14.5324v-5.17h-24.2721v5.17h9.0882v34.2334h6.1499V257.6501Zm-32.3906,19.2658h-12.0828l4.8429-14.6931a39.55289,39.55289,0,0,0,1.1438-4.6807h.1094a39.39877,39.39877,0,0,0,1.1424,4.6807Zm11.1563,14.9676-13.6061-39.4034h-7.1834l-13.6062,39.4034h6.4207l3.4827-10.395h14.5866l3.4828,10.395Zm-34.7325-1.4704-2.0143-5.0067a10.453,10.453,0,0,1-5.8228,1.5791c-5.5515,0-9.8508-4.8441-9.8508-14.8581s4.2993-14.8568,9.8508-14.8568a10.43393,10.43393,0,0,1,5.8228,1.6328l2.0143-4.9536a16.53265,16.53265,0,0,0-8.4914-2.0681c-8.4904,0-15.56523,6.5313-15.56523,20.3008,0,13.7687,7.07483,20.2987,15.56523,20.2987A16.21469,16.21469,0,0,0,1100.7818,290.4131Zm-44.41062-13.4972H1044.2885l4.84288-14.6931a39.54185,39.54185,0,0,0,1.1437-4.6807h.1093a39.39144,39.39144,0,0,0,1.1427,4.6807Zm11.1565,14.9676-13.60618-39.4034H1046.738l-13.606,39.4034h6.4206l3.4826-10.395h14.5866l3.48272,10.395Zm-36.6375,0V252.4801h-6.15v39.4034Zm-17.31768-28.2467c0,5.0618-3.26482,7.076-8.87142,7.076h-4.6265V257.4337a16.056,16.056,0,0,1,5.2807-.8161C1010.961,256.6176,1013.5725,259.2836,1013.5725,263.6368Zm8.10928,28.2467-5.878-12.899c-1.1426-2.5025-2.6109-4.5169-4.6251-5.5512v-.1095c4.6789-1.0331,8.4349-3.9719,8.4349-9.9571,0-6.968-4.8984-11.485-14.3677-11.485a29.18622,29.18622,0,0,0-11.2105,2.1224v37.8794h6.0392V275.1747h3.48392c2.99358,0,4.84418,1.579,6.04108,4.2452l5.5522,12.4636Zm-41.0459-14.9676H968.5545l4.84268-14.6931a39.39835,39.39835,0,0,0,1.1426-4.6807h.1094a39.55289,39.55289,0,0,0,1.1438,4.6807Zm11.1577,14.9676L978.1875,252.4801h-7.18432l-13.6065,39.4034h6.4219l3.4831-10.395h14.586l3.4829,10.395Zm-31.3589-34.2334v-5.17h-24.2736v5.17h9.08842v34.2334h6.14988V257.6501Zm-27.4941,34.2334V252.4801h-6.15v39.4034Zm-10.2965-11.048c0-6.7489-5.4419-9.4706-9.9047-11.5379-3.3205-1.5235-6.6408-3.3203-6.6408-6.6395,0-3.4288,2.6673-5.4971,6.5315-5.4971a15.04251,15.04251,0,0,1,6.6945,1.7967l1.9593-5.0079a18.056,18.056,0,0,0-8.8716-2.0681c-7.5105,0-12.4627,4.2993-12.4627,11.1035,0,6.6938,5.4418,9.5236,10.1221,11.646,3.3207,1.4696,6.31382,3.1014,6.31382,6.4759,0,3.6465-2.93912,5.8784-7.29242,5.8784a16.70175,16.70175,0,0,1-7.4563-1.905l-2.1225,5.3326a22.54513,22.54513,0,0,0,9.7964,2.0681C917.47288,292.4812,922.64408,287.9104,922.64408,280.8355ZM890.0895,263.6368c0,5.0618-3.26632,7.076-8.87272,7.076h-4.6254V257.4337a16.04038,16.04038,0,0,1,5.2794-.8161C887.47618,256.6176,890.0895,259.2836,890.0895,263.6368Zm8.10778,28.2467-5.8782-12.899c-1.1427-2.5025-2.611-4.5169-4.6252-5.5512v-.1095c4.6794-1.0331,8.4352-3.9719,8.4352-9.9571,0-6.968-4.8983-11.485-14.3677-11.485a29.18968,29.18968,0,0,0-11.2108,2.1224v37.8794h6.0408V275.1747h3.4828c2.9931,0,4.8441,1.579,6.0418,4.2452l5.5513,12.4636Zm-31.6835,0v-5.1707h-14.6405V274.305h13.333v-5.0625h-13.333V257.6501h14.6405v-5.17h-20.6815v39.4034ZM843.373,252.4801h-6.6396l-7.782,27.4305a54.94979,54.94979,0,0,0-1.19888,5.4958h-.10692s-.5447-3.0474-1.2533-5.4958l-7.7276-27.4305h-6.6939l12.4623,39.4034h6.5313ZM809.4575,291.8835V252.4801h-6.15042v39.4034Zm-11.60162,0V252.4801h-5.3351v24.981c0,2.4495.1096,5.0617.1096,5.0617h-.1096a45.09576,45.09576,0,0,0-2.3387-4.4087l-15.783-25.634h-5.6053v39.4034h5.3324V266.1949c0-2.3943-.1086-4.9514-.1086-4.9514h.1086a42.62624,42.62624,0,0,0,2.286,4.4619l16.1086,26.1781ZM763.394,280.3998V252.4801h-6.1488v27.9753c0,4.1885-3.1029,6.6927-6.9666,6.6927-3.86408,0-6.9658-2.5042-6.9658-6.6927V252.4801H737.163v27.9197c0,7.62,5.7132,12.0276,13.1156,12.0276C757.67918,292.4274,763.394,288.0198,763.394,280.3998Zm-39.8373,11.4837V252.4801h-5.3336v24.981c0,2.4495.10942,5.0617.10942,5.0617h-.10942a45.30657,45.30657,0,0,0-2.3402-4.4087l-15.7831-25.634h-5.6052v39.4034h5.332V266.1949c0-2.3943-.10808-4.9514-.10808-4.9514h.10808a42.99948,42.99948,0,0,0,2.2863,4.4619l16.1102,26.1781Zm-41.6449-49.9607a2.48166,2.48166,0,0,0-2.5027-1.4152,4.82136,4.82136,0,0,0-3.4301,1.4152l-3.91679,7.129h4.24389Zm2.23072,30.2597c0,8.5974-3.10192,14.8573-9.034,14.8573-5.93111,0-9.034-6.2599-9.034-14.8573,0-8.5995,3.10289-14.8581,9.034-14.8581C681.04058,257.3244,684.1425,263.583,684.1425,272.1825Zm6.14988,0c0-11.3198-5.0063-20.3008-15.18388-20.3008-10.17741,0-15.18411,8.981-15.18411,20.3008,0,11.3191,5.0067,20.2987,15.18411,20.2987C685.28608,292.4812,690.29238,283.5016,690.29238,272.1825Zm-34.62269,19.701V252.4801h-6.1499v39.4034Zm-9.7519-1.4704-2.01429-5.0067a10.45493,10.45493,0,0,1-5.82331,1.5791c-5.551,0-9.8503-4.8441-9.8503-14.8581s4.2993-14.8568,9.8503-14.8568a10.43581,10.43581,0,0,1,5.82331,1.6328l2.01429-4.9536a16.53452,16.53452,0,0,0-8.4918-2.0681c-8.4902,0-15.565,6.5313-15.565,20.3008,0,13.7687,7.0748,20.2987,15.565,20.2987A16.21734,16.21734,0,0,0,645.91779,290.4131Zm-36.2031-13.4972h-12.0813l4.8427-14.6931a39.36506,39.36506,0,0,0,1.1425-4.6807h.1095a39.54185,39.54185,0,0,0,1.1437,4.6807Zm11.1567,14.9676-13.6055-39.4034h-7.1843L586.4755,291.8835h6.422l3.48249-10.395h14.5867l3.4827,10.395Zm-40.8828-19.701c0,10.6117-4.62509,15.1288-10.7212,15.1288a12.2793,12.2793,0,0,1-4.7334-.7624v-28.735a12.4551,12.4551,0,0,1,4.7334-.761C575.3635,257.0529,579.98859,261.5685,579.98859,272.1825Zm6.1501,0c0-13.3884-6.8017-20.3008-17.19719-20.3008a25.38819,25.38819,0,0,0-10.55781,2.0681v36.4633a25.273,25.273,0,0,0,10.55781,2.0681C579.337,292.4812,586.13869,285.57,586.13869,272.1825Zm-33.1533,19.701V252.4801h-5.3336v24.981c0,2.4495.1095,5.0617.1095,5.0617h-.1095a44.973,44.973,0,0,0-2.34029-4.4087l-15.783-25.634h-5.60511v39.4034h5.3333V266.1949c0-2.3943-.10819-4.9514-.10819-4.9514h.10819a42.83611,42.83611,0,0,0,2.2849,4.4619l16.1102,26.1781Zm-34.4606-11.4837V252.4801h-6.1499v27.9753c0,4.1885-3.1018,6.6927-6.9659,6.6927-3.8637,0-6.9666-2.5042-6.9666-6.6927V252.4801h-6.1487v27.9197c0,7.62,5.7135,12.0276,13.1153,12.0276C512.81019,292.4274,518.52479,288.0198,518.52479,280.3998Zm-29.8881-22.7497v-5.17h-20.3544v39.4034h6.0408V274.305h13.0615v-5.0625h-13.0615V257.6501Z"/><path class="cls-4" d="M1467.9607,149.987a67.88958,67.88958,0,0,0-10.4697-.8047c-12.75,0-23.3547,2.1468-31.4075,5.2315v68.6758h22.146V167.8277a21.01385,21.01385,0,0,1,7.5165-1.2073,24.89332,24.89332,0,0,1,8.1886,1.3419Zm-50.8436,69.4816V150.7915h-22.146v54.8604a23.0582,23.0582,0,0,1-8.0536,1.0737c-6.4427,0-9.7989-2.8161-9.7989-8.9868V150.7915h-22.1459v46.4111c0,19.5613,10.7369,27.4962,31.9448,27.4962C1398.5947,224.6988,1410.4054,222.6868,1417.1171,219.4686Zm-68.5629-25.619c0-17.5725-14.2278-24.4127-24.4272-29.6441-6.0392-3.0847-11.0064-6.3031-11.0064-11.4018,0-5.2302,3.8917-8.9848,10.6033-8.9848a34.50594,34.50594,0,0,1,15.3023,4.0242l6.9772-18.2426c-5.2333-2.9524-13.4211-5.2315-23.3533-5.2315-20.5366,0-32.3462,11.9374-32.3462,29.9112,0,17.7061,13.6902,24.948,23.8896,29.7777,6.0405,2.8166,10.8716,5.9015,10.8716,11.1324,0,5.2301-4.0263,8.9874-11.2746,8.9874a36.77122,36.77122,0,0,1-17.3137-4.5615l-7.3816,19.8524c5.5029,2.9515,15.9719,5.2302,25.7703,5.2302C1336.7426,224.6988,1348.5542,211.957,1348.5542,193.8496Zm-83.7817,29.24V117.7957h-22.1472V223.0896Zm-50.1737-44.2631-25.5027,3.2196c.135-11.9372,6.1755-17.3031,13.9589-17.3031C1210.1696,164.743,1214.5988,169.7059,1214.5988,178.8265Zm21.3416,4.2921c0-19.8512-11.2746-33.9363-32.348-33.9363-21.7441,0-34.6287,15.5607-34.6287,37.6922,0,21.4617,12.3483,37.8243,37.4478,37.8243,10.8716,0,21.7443-2.1468,28.3214-5.2302l-6.1754-16.3638a48.57515,48.57515,0,0,1-20.4009,4.4256c-8.9934,0-15.8388-3.8903-17.5836-11.8035l45.1001-5.9013A56.28614,56.28614,0,0,0,1235.9404,183.1186Zm-95.6735,23.4726a19.824,19.824,0,0,1-6.4434.9392c-9.2612,0-14.4951-7.11-14.4951-20.6559,0-12.0718,4.8309-20.2541,14.2281-20.2541a20.49208,20.49208,0,0,1,6.7104,1.0737Zm22.146,12.8774V117.7957h-22.146v33.6682a33.62976,33.62976,0,0,0-9.1265-1.3423c-22.4166,0-33.9592,14.6214-33.9592,37.0211,0,24.1432,13.0208,37.5561,37.0453,37.5561C1146.0384,224.6988,1156.775,222.4201,1162.4129,219.4686Zm-110.89832-11.1324a29.15884,29.15884,0,0,1-8.0523,1.0725c-7.9189,0-12.886-3.2193-12.886-9.1202,0-8.5855,8.9946-9.9274,20.9383-10.4629Zm20.80409,11.1324V175.8754c0-19.1805-9.93129-26.6931-29.66229-26.6931a83.03575,83.03575,0,0,0-28.5882,5.2315l5.3685,14.7545c5.2349-2.1462,13.5556-4.4253,20.53682-4.4253,7.51508,0,11.54108,2.6817,11.54108,8.4495v2.8177c-21.8773,1.2062-41.4739,5.6328-41.4739,24.8132,0,15.4259,11.2744,23.8754,34.0924,23.8754C1055.67708,224.6988,1066.81668,222.2851,1072.31867,219.4686Zm-63.99659.2671-6.8449-16.2292c-2.2815,1.7436-5.7702,2.6829-9.5295,2.6829-7.7847,0-13.6907-7.3776-13.6907-19.583,0-12.2067,5.3699-19.4498,13.6907-19.4498,3.7593,0,7.248.9405,9.5295,2.6829l6.8449-15.6939c-4.8318-3.0847-10.602-4.9633-19.86358-4.9633-17.71662,0-33.153,12.3414-33.153,37.6922s15.43638,37.8243,33.153,37.8243C997.72008,224.6988,1003.49028,222.955,1008.32208,219.7357Zm-59.6994,3.3539V150.7915H926.4755v72.2981Zm1.2073-93.6241c0-6.3039-5.63648-11.5353-12.34948-11.5353-6.71042,0-12.21232,5.2314-12.21232,11.5353,0,6.3053,5.5019,11.4011,12.21232,11.4011C944.1935,140.8666,949.83,135.7708,949.83,129.4655Zm-32.5893,93.6241V117.7957h-22.1458V223.0896Zm-42.6564-98.1842c-.8055-2.8161-4.5641-4.5603-8.726-4.5603a17.1519,17.1519,0,0,0-11.9443,4.5603l-9.26148,17.5711h14.898Zm-8.3234,61.701c0,13.2791-4.026,20.3879-11.8093,20.3879-7.7856,0-11.81208-7.1088-11.81208-20.3879s4.02648-20.2542,11.81208-20.2542C862.23488,166.3522,866.26088,173.3273,866.26088,186.6064Zm22.14862.2681c0-21.5953-12.34952-37.6922-33.95792-37.6922-21.61108,0-33.9594,16.0969-33.9594,37.6922,0,21.594,12.34832,37.8243,33.9594,37.8243C876.06,224.6988,888.4095,208.4685,888.4095,186.8745ZM817.968,221.8821v-18.242a13.30522,13.30522,0,0,1-5.5017,1.2075c-4.161,0-7.1147-1.6092-7.1147-6.5713V167.2916H817.968V150.7915h-12.6164V129.3323l-21.6097,6.0359v15.4233h-8.5898v16.5001h8.5898v32.5939c0,16.2289,6.3078,24.4114,21.3417,24.4114C810.31828,224.2969,815.55238,223.0896,817.968,221.8821Zm-67.621-13.5459a29.17889,29.17889,0,0,1-8.0536,1.0725c-7.9182,0-12.885-3.2193-12.885-9.1202,0-8.5855,8.9934-9.9274,20.9386-10.4629Zm20.804,11.1324V175.8754c0-19.1805-9.9326-26.6931-29.6637-26.6931a83.03334,83.03334,0,0,0-28.5882,5.2315l5.3685,14.7545c5.2348-2.1462,13.5556-4.4253,20.5368-4.4253,7.51512,0,11.5426,2.6817,11.5426,8.4495v2.8177c-21.8793,1.2062-41.4754,5.6328-41.4754,24.8132,0,15.4259,11.2758,23.8754,34.0924,23.8754C754.508,224.6988,765.64758,222.2851,771.151,219.4686Zm-64.4018,0-6.9789-18.6452a19.41734,19.41734,0,0,1-11.2746,3.6212c-11.1408,0-18.38879-10.8644-18.38879-30.1792,0-19.3155,7.248-30.0448,18.38879-30.0448a19.41234,19.41234,0,0,1,11.2746,3.4875l6.9789-18.1076c-4.6974-3.0847-12.61568-5.2315-21.20668-5.2315-21.74321,0-38.92391,16.4976-38.92391,50.1657,0,33.6665,17.1807,50.1641,38.92391,50.1641C694.5365,224.6988,702.05178,222.552,706.74918,219.4686Zm-67.35089,3.621V150.7915h-22.1472v72.2981Zm1.2073-93.6241c0-6.3039-5.6364-11.5353-12.3495-11.5353-6.7102,0-12.2123,5.2314-12.2123,11.5353,0,6.3053,5.5021,11.4011,12.2123,11.4011C634.96919,140.8666,640.60559,135.7708,640.60559,129.4655ZM608.15,223.0896V173.5955c0-15.6931-9.9312-24.4132-32.616-24.4132a81.96336,81.96336,0,0,0-30.19949,5.2315v68.6758h22.14719V167.9623a23.69055,23.69055,0,0,1,8.3205-1.4756c6.577,0,10.2019,3.6222,10.2019,9.6581v46.9448Zm-72.5869-29.24V125.9783h-22.8192v68.1395c0,6.8402-4.9646,10.8642-11.27439,10.8642-6.30781,0-11.27461-4.024-11.27461-10.8642V125.9783h-22.8167v67.8713c0,19.718,14.6307,30.5822,34.09131,30.5822C520.93239,224.4318,535.56309,213.5676,535.56309,193.8496Z"/></svg>